<svg width="139" height="24" viewBox="0 0 139 24" fill="none" xmlns="http://www.w3.org/2000/svg">
  <rect width="138.764" height="24" rx="2.18182" fill="#261230"/>
  <path
    d="M8.72798 15.2726H9.91316V11.8697L9.6887 10.4062L9.8952 10.3343L12.1309 15.1649L14.3486 10.3343L14.5461 10.4062L14.3486 11.8607V15.2726H15.5248V8.72714H13.9535L12.2117 12.7137H12.0142L10.2723 8.72714H8.72798V15.2726Z"
    fill="#D7FF64"/>
  <path
    d="M22.3432 15.2726H23.6631L21.3017 8.72714H19.7574L17.4589 15.2726H18.7069L19.1558 13.9797H21.9033L22.3432 15.2726ZM19.497 13.0279L19.901 11.8607L20.4308 10.0021H20.6463L21.176 11.8607L21.5711 13.0279H19.497Z"
    fill="#D7FF64"/>
  <path
    d="M25.4209 15.2726H28.1234C30.1077 15.2726 30.9876 14.1413 30.9876 12.0044C30.9876 9.92131 30.1706 8.72714 28.1234 8.72714H25.4209V15.2726ZM26.624 14.2131V9.77765H28.0965C29.147 9.77765 29.7306 10.1907 29.7306 11.4477V12.5521C29.7306 13.6923 29.2817 14.2131 28.0965 14.2131H26.624Z"
    fill="#D7FF64"/>
  <path
    d="M33.079 15.2726H37.6491V14.2131H34.2822V12.3815H37.2002V11.3938H34.2822V9.77765H37.6491V8.72714H33.079V15.2726Z"
    fill="#D7FF64"/>
  <path
    d="M42.923 15.2726H46.2451C47.4572 15.2726 48.2025 14.5812 48.2025 13.5487C48.2025 12.7675 47.8343 12.175 47.0532 11.9954V11.7799C47.6637 11.5734 48.0319 11.0436 48.0319 10.3433C48.0319 9.38259 47.4572 8.72714 46.281 8.72714H42.923V15.2726ZM44.0992 11.4746V9.65195H45.9578C46.4875 9.65195 46.7928 9.92131 46.7928 10.3523V10.7653C46.7928 11.1873 46.4965 11.4746 45.9758 11.4746H44.0992ZM44.0992 14.3388V12.3904H46.0296C46.5863 12.3904 46.9365 12.6418 46.9365 13.1806V13.5666C46.9365 14.0425 46.5684 14.3388 45.9309 14.3388H44.0992Z"
    fill="#D7FF64"/>
  <path
    d="M49.6959 8.72714L52.174 12.579V14.1952H50.1898V15.2726H53.3772V12.579L55.8553 8.72714H54.4456L53.5119 10.2535L52.8744 11.3759H52.6679L52.0483 10.2715L51.1056 8.72714H49.6959Z"
    fill="#D7FF64"/>
  <path fill-rule="evenodd" clip-rule="evenodd"
    d="M74.1824 7.63626C74.1824 7.03377 74.6708 6.54535 75.2733 6.54535H84.0006C84.6031 6.54535 85.0915 7.03377 85.0915 7.63626V9.81808H80.0733V8.94535H79.2006V10.6908H84.0006C84.6031 10.6908 85.0915 11.1792 85.0915 11.7817V16.3635C85.0915 16.966 84.6031 17.4544 84.0006 17.4544H75.2733C74.6708 17.4544 74.1824 16.966 74.1824 16.3635V14.1817L79.2006 14.1817V15.0544H80.0733V13.309L75.2733 13.309C74.6708 13.309 74.1824 12.8206 74.1824 12.2181V7.63626ZM63.4912 6.54545C62.8887 6.54545 62.4003 7.03387 62.4003 7.63636V17.4545H67.4185V14.1818H68.2912V17.4545H73.3094V7.63636C73.3094 7.03387 72.821 6.54545 72.2185 6.54545H63.4912ZM69.164 10.6909V11.5636H66.5458V10.6909H69.164ZM110.619 6.54545C110.016 6.54545 109.528 7.03387 109.528 7.63636V17.4545H114.546V14.1818H115.419V17.4545H120.437V7.63636C120.437 7.03387 119.948 6.54545 119.346 6.54545H110.619ZM116.291 10.6909V11.5636H113.673V10.6909H116.291ZM91.8549 8.29091H96.8731V11.3455C96.8731 11.9479 96.3847 12.4364 95.7822 12.4364H91.8549V13.3091H96.8731V17.4545H87.9276C87.3251 17.4545 86.8367 16.9661 86.8367 16.3636V12.4364H85.964V8.29091H86.8367V6.54545H91.8549V8.29091ZM108.655 7.63636C108.655 7.03387 108.166 6.54545 107.564 6.54545H97.7458V17.4545H102.764V14.1818H103.637V17.4545H108.655V13.3091H106.473V12.4364H107.564C108.166 12.4364 108.655 11.9479 108.655 11.3455V7.63636ZM104.509 10.6909V11.5636H101.891V10.6909H104.509ZM132.218 13.3091L126.327 13.3091V6.54547L121.309 6.54547V17.4546H132.218V13.3091Z"
    fill="#D7FF64"/>
</svg>
